{
  "accessors": [
    {
      "bufferView": 2,
      "componentType": 5126,
      "count": 31379,
      "max": [
        0.1599999964237213,
        0.8019400238990784,
        1.840000033378601
      ],
      "min": [
        -0.1599999964237213,
        -0.8019400238990784,
        0.0
      ],
      "type": "VEC3"
    },
    {
      "bufferView": 2,
      "byteOffset": 376548,
      "componentType": 5126,
      "count": 31379,
      "max": [
        1.0,
        1.0,
        1.0
      ],
      "min": [
        -1.0,
        -1.0,
        -9.999999747378752e-06
      ],
      "type": "VEC3"
    },
    {
      "bufferView": 3,
      "componentType": 5126,
      "count": 31379,
      "max": [
        1.0,
        1.0,
        0.0004977690987288952,
        1.0
      ],
      "min": [
        -1.0,
        -1.0,
        -0.0005039654788561165,
        1.0
      ],
      "type": "VEC4"
    },
    {
      "bufferView": 1,
      "componentType": 5126,
      "count": 31379,
      "max": [
        9.997819900512695,
        9.980019569396973
      ],
      "min": [
        0.0021800000686198473,
        0.0021800000686198473
      ],
      "type": "VEC2"
    },
    {
      "bufferView": 0,
      "componentType": 5125,
      "count": 135936,
      "type": "SCALAR"
    },
    {
      "bufferView": 2,
      "byteOffset": 753096,
      "componentType": 5126,
      "count": 126,
      "max": [
        0.1550000011920929,
        0.79694002866745,
        1.7039999961853027
      ],
      "min": [
        -0.1550000011920929,
        -0.79694002866745,
        0.5600000023841858
      ],
      "type": "VEC3"
    },
    {
      "bufferView": 2,
      "byteOffset": 754608,
      "componentType": 5126,
      "count": 126,
      "max": [
        1.0,
        1.0,
        1.0
      ],
      "min": [
        -1.0,
        -1.0,
        -1.0
      ],
      "type": "VEC3"
    },
    {
      "bufferView": 3,
      "byteOffset": 502064,
      "componentType": 5126,
      "count": 126,
      "max": [
        1.0,
        0.0,
        1.0,
        1.0
      ],
      "min": [
        0.0,
        0.0,
        -1.0,
        1.0
      ],
      "type": "VEC4"
    },
    {
      "bufferView": 1,
      "byteOffset": 251032,
      "componentType": 5126,
      "count": 126,
      "max": [
        1.0,
        1.0
      ],
      "min": [
        0.0,
        0.0
      ],
      "type": "VEC2"
    },
    {
      "bufferView": 0,
      "byteOffset": 543744,
      "componentType": 5125,
      "count": 288,
      "type": "SCALAR"
    }
  ],
  "asset": {
    "extras": {
      "author": "Roberto (https://sketchfab.com/Roberto_Lopez)",
      "license": "CC-BY-4.0 (http://creativecommons.org/licenses/by/4.0/)",
      "source": "https://sketchfab.com/3d-models/8-daa33e45ca16451b8f54ffd12f703750",
      "title": "8"
    },
    "generator": "Sketchfab-12.66.0",
    "version": "2.0"
  },
  "bufferViews": [
    {
      "buffer": 0,
      "byteLength": 544896,
      "name": "floatBufferViews",
      "target": 34963
    },
    {
      "buffer": 0,
      "byteLength": 252040,
      "byteOffset": 544896,
      "byteStride": 8,
      "name": "floatBufferViews",
      "target": 34962
    },
    {
      "buffer": 0,
      "byteLength": 756120,
      "byteOffset": 796936,
      "byteStride": 12,
      "name": "floatBufferViews",
      "target": 34962
    },
    {
      "buffer": 0,
      "byteLength": 504080,
      "byteOffset": 1553056,
      "byteStride": 16,
      "name": "floatBufferViews",
      "target": 34962
    }
  ],
  "buffers": [
    {
      "byteLength": 2057136,
      "uri": "scene.bin"
    }
  ],
  "images": [
    {
      "uri": "textures/metal_rack_baseColor.jpeg"
    },
    {
      "uri": "textures/metal_rack_metallicRoughness.png"
    },
    {
      "uri": "textures/metal_rack_normal.png"
    },
    {
      "uri": "textures/wood_rack_baseColor.jpeg"
    },
    {
      "uri": "textures/wood_rack_metallicRoughness.png"
    },
    {
      "uri": "textures/wood_rack_normal.png"
    }
  ],
  "materials": [
    {
      "doubleSided": true,
      "name": "metal_rack",
      "normalTexture": {
        "index": 2
      },
      "pbrMetallicRoughness": {
        "baseColorTexture": {
          "index": 0
        },
        "metallicRoughnessTexture": {
          "index": 1
        }
      }
    },
    {
      "doubleSided": true,
      "name": "wood_rack",
      "normalTexture": {
        "index": 5
      },
      "pbrMetallicRoughness": {
        "baseColorTexture": {
          "index": 3
        },
        "metallicFactor": 0.0,
        "metallicRoughnessTexture": {
          "index": 4
        }
      }
    }
  ],
  "meshes": [
    {
      "name": "rack.018_0",
      "primitives": [
        {
          "attributes": {
            "NORMAL": 1,
            "POSITION": 0,
            "TANGENT": 2,
            "TEXCOORD_0": 3
          },
          "indices": 4,
          "material": 0,
          "mode": 4
        }
      ]
    },
    {
      "name": "rack.018_1",
      "primitives": [
        {
          "attributes": {
            "NORMAL": 6,
            "POSITION": 5,
            "TANGENT": 7,
            "TEXCOORD_0": 8
          },
          "indices": 9,
          "material": 1,
          "mode": 4
        }
      ]
    }
  ],
  "nodes": [
    {
      "children": [
        1
      ],
      "matrix": [
        1.0,
        0.0,
        0.0,
        0.0,
        0.0,
        2.220446049250313e-16,
        -1.0,
        0.0,
        0.0,
        1.0,
        2.220446049250313e-16,
        0.0,
        0.0,
        0.0,
        0.0,
        1.0
      ],
      "name": "Sketchfab_model"
    },
    {
      "children": [
        2
      ],
      "name": "Root"
    },
    {
      "children": [
        3,
        4
      ],
      "matrix": [
        -0.0,
        -1.5,
        0.0,
        0.0,
        1.5,
        -0.0,
        0.0,
        0.0,
        0.0,
        0.0,
        1.5,
        0.0,
        0.0,
        0.0,
        0.0,
        1.0
      ],
      "name": "rack.018"
    },
    {
      "mesh": 0,
      "name": "rack.018_0"
    },
    {
      "mesh": 1,
      "name": "rack.018_1"
    }
  ],
  "samplers": [
    {
      "magFilter": 9729,
      "minFilter": 9987,
      "wrapS": 10497,
      "wrapT": 10497
    }
  ],
  "scene": 0,
  "scenes": [
    {
      "name": "Sketchfab_Scene",
      "nodes": [
        0
      ]
    }
  ],
  "textures": [
    {
      "sampler": 0,
      "source": 0
    },
    {
      "sampler": 0,
      "source": 1
    },
    {
      "sampler": 0,
      "source": 2
    },
    {
      "sampler": 0,
      "source": 3
    },
    {
      "sampler": 0,
      "source": 4
    },
    {
      "sampler": 0,
      "source": 5
    }
  ]
}
